<svg width="350" height="350" viewBox="0 0 350 350" fill="none" xmlns="http://www.w3.org/2000/svg">
<rect width="350" height="350" rx="64" fill="#16161D"/>
<g filter="url(#filter0_d_74_100)">
<path d="M313 69C315.761 69 318 71.2386 318 74C318 76.5927 316.027 78.7237 313.5 78.9746V173.024C316.027 173.275 318 175.407 318 178C318 180.593 316.027 182.724 313.5 182.975V271.024C316.027 271.275 318 273.407 318 276C318 278.761 315.761 281 313 281C310.407 281 308.275 279.027 308.024 276.5H253.976C253.725 279.027 251.593 281 249 281C246.239 281 244 278.761 244 276C244 273.581 245.718 271.563 248 271.1V226.899C245.718 226.436 244 224.419 244 222C244 219.581 245.718 217.563 248 217.1V168.899C247.091 168.715 246.271 168.284 245.614 167.679L217.025 197.034C217.638 197.864 218 198.89 218 200C218 202.761 215.761 205 213 205C211.937 205 210.953 204.667 210.143 204.102L175.182 240.002L174.46 241.696L173.805 241.416L173.5 241.73V160.313L173.622 160.173L245.33 77.3945C244.505 76.5029 244 75.3106 244 74C244 71.2386 246.239 69 249 69C251.761 69 254 71.2386 254 74H308C308 71.2386 310.239 69 313 69ZM252.749 272.693C253.424 273.458 253.869 274.429 253.976 275.5H308.024C308.088 274.863 308.271 274.262 308.551 273.719L277.016 246.221L252.749 272.693ZM277.691 245.483L309.1 272.871C309.244 272.692 309.401 272.523 309.568 272.365L290.252 238.463C289.575 238.805 288.81 239 288 239C286.755 239 285.617 238.544 284.742 237.791L277.691 245.483ZM252.869 225.165C251.952 226.285 250.56 227 249 227V271C250.134 271 251.179 271.378 252.018 272.014L276.263 245.563L252.869 225.165ZM290.516 229.679C292.001 230.545 293 232.156 293 234C293 235.592 292.255 237.009 291.096 237.925L310.368 271.748C310.999 271.357 311.723 271.102 312.5 271.024V182.975C312.273 182.952 312.052 182.914 311.835 182.862L290.516 229.679ZM253.704 223.693C253.626 223.911 253.532 224.122 253.426 224.324L276.938 244.827L284.052 237.066C283.393 236.22 283 235.156 283 234C283 233.65 283.036 233.308 283.104 232.978L253.704 223.693ZM174.5 239.053L197.441 185.259L174.5 161.729V239.053ZM176.27 237.451L209.382 203.449C208.526 202.552 208 201.338 208 200C208 198.903 208.354 197.89 208.952 197.065L198.197 186.034L176.27 237.451ZM253.191 219.274C253.702 220.059 254 220.994 254 222C254 222.245 253.981 222.486 253.947 222.722L283.405 232.023C283.837 231.02 284.59 230.187 285.532 229.651L272.36 206.347L253.191 219.274ZM288.5 195.462V229.024C288.883 229.062 289.254 229.145 289.606 229.265L310.887 182.531C310.301 182.257 309.776 181.874 309.341 181.406L288.5 195.462ZM273.192 205.785L286.452 229.245C286.787 229.136 287.138 229.06 287.5 229.024V196.137L273.192 205.785ZM251.248 217.534C251.738 217.781 252.181 218.106 252.562 218.493L271.867 205.474L263.104 189.972L251.248 217.534ZM251.012 168.577C250.396 168.848 249.716 169 249 169V217C249.455 217 249.896 217.062 250.315 217.176L262.487 188.879L251.012 168.577ZM263.602 188.816L272.699 204.912L287.5 194.931V172.933L271.901 169.521L263.602 188.816ZM198.622 185.038L209.619 196.316C210.479 195.527 211.616 195.035 212.868 195.003L215.255 162.925L208.193 162.596L198.622 185.038ZM213.867 195.076C214.814 195.242 215.67 195.673 216.354 196.291L244.948 166.929C244.401 166.173 244.059 165.258 244.007 164.267L216.255 162.972L213.867 195.076ZM288.5 194.257L308.734 180.609C308.269 179.85 308 178.956 308 178C308 177.805 308.012 177.613 308.033 177.424L288.5 173.151V194.257ZM253.753 165.551C253.416 166.585 252.752 167.469 251.882 168.084L262.984 187.725L270.908 169.304L253.753 165.551ZM197.866 184.262L207.127 162.546L175.242 161.058L197.866 184.262ZM290.173 136.504C289.658 136.753 289.094 136.916 288.5 136.975V172.129L308.246 176.448C308.636 175.252 309.465 174.255 310.542 173.646L290.173 136.504ZM290.455 127.645C291.974 128.503 293 130.131 293 132C293 133.624 292.225 135.065 291.026 135.979L311.461 173.241C311.793 173.134 312.141 173.06 312.5 173.024V78.9746C312.279 78.9526 312.062 78.9152 311.85 78.8652L290.455 127.645ZM272.304 168.586L287.5 171.91V136.975C286.994 136.924 286.509 136.799 286.059 136.609L272.304 168.586ZM253.302 161.451C253.745 162.198 254 163.069 254 164C254 164.194 253.987 164.386 253.966 164.574L271.31 168.368L285.179 136.128C284.853 135.905 284.555 135.645 284.291 135.354L253.302 161.451ZM221.306 142.749C220.424 143.527 219.268 144 218 144C217.888 144 217.777 143.995 217.667 143.987L216.329 161.975L244.054 163.268C244.158 162.554 244.414 161.89 244.787 161.308L221.306 142.749ZM208.611 161.614L215.329 161.928L216.676 143.821C216.533 143.782 216.394 143.737 216.257 143.687L208.611 161.614ZM176.011 160.093L207.545 161.564L215.357 143.245C214.821 142.911 214.353 142.478 213.979 141.972L176.011 160.093ZM252.299 160.244C252.442 160.37 252.579 160.502 252.707 160.644L283.697 134.547C283.255 133.801 283 132.93 283 132C283 131.744 283.019 131.493 283.056 131.248L274.585 129.076L252.299 160.244ZM222.757 137.46C222.914 137.945 223 138.462 223 139C223 140.132 222.623 141.176 221.988 142.015L245.407 160.523C246.096 159.812 246.993 159.304 248 159.1V126.899C246.859 126.668 245.858 126.048 245.144 125.184L222.757 137.46ZM253.695 123.72C252.994 125.634 251.157 127 249 127V159C249.905 159 250.754 159.241 251.486 159.662L273.548 128.811L253.695 123.72ZM175.943 159.018L213.466 141.108C213.167 140.468 213 139.753 213 139C213 136.239 215.239 134 218 134C218.587 134 219.15 134.102 219.674 134.288L246.218 78.1553C246.171 78.1236 246.125 78.0898 246.079 78.0566L175.943 159.018ZM220.578 134.715C221.316 135.16 221.928 135.79 222.353 136.541L244.586 124.349C244.213 123.648 244 122.849 244 122C244 119.581 245.718 117.563 248 117.1V78.8994C247.689 78.8362 247.388 78.7432 247.101 78.625L220.578 134.715ZM275.209 128.204L283.304 130.279C283.712 129.166 284.505 128.24 285.521 127.658L280.585 120.687L275.209 128.204ZM253.474 119.769C253.809 120.44 254 121.198 254 122C254 122.255 253.98 122.505 253.943 122.75L274.172 127.938L279.975 119.823L270.758 106.806L253.474 119.769ZM281.201 119.825L286.453 127.244C286.94 127.086 287.46 127 288 127C288.537 127 289.054 127.085 289.539 127.242L310.9 78.5371C310.856 78.5168 310.813 78.4962 310.77 78.4746L281.201 119.825ZM271.559 106.205L280.59 118.962L309.924 77.9404C309.814 77.8543 309.707 77.7639 309.604 77.6689L271.559 106.205ZM250.828 78.6533C250.262 78.876 249.645 79 249 79V117C250.599 117 252.021 117.751 252.937 118.919L270.18 105.988L250.828 78.6533ZM253.899 75C253.629 76.3332 252.827 77.4724 251.726 78.1904L270.98 105.388L308.94 76.918C308.535 76.3549 308.244 75.7046 308.101 75H253.899Z" fill="#54D381"/>
</g>
<g filter="url(#filter1_d_74_100)">
<path d="M97 276.5H32L32 74.5H97L174 161V241L97 164V276.5Z" fill="#4CEEF9"/>
</g>
<defs>
<filter id="filter0_d_74_100" x="157.5" y="53" width="176.5" height="244" filterUnits="userSpaceOnUse" color-interpolation-filters="sRGB">
<feFlood flood-opacity="0" result="BackgroundImageFix"/>
<feColorMatrix in="SourceAlpha" type="matrix" values="0 0 0 0 0 0 0 0 0 0 0 0 0 0 0 0 0 0 127 0" result="hardAlpha"/>
<feOffset/>
<feGaussianBlur stdDeviation="8"/>
<feComposite in2="hardAlpha" operator="out"/>
<feColorMatrix type="matrix" values="0 0 0 0 0.298039 0 0 0 0 0.933333 0 0 0 0 0.976471 0 0 0 1 0"/>
<feBlend mode="normal" in2="BackgroundImageFix" result="effect1_dropShadow_74_100"/>
<feBlend mode="normal" in="SourceGraphic" in2="effect1_dropShadow_74_100" result="shape"/>
</filter>
<filter id="filter1_d_74_100" x="16" y="58.5" width="174" height="234" filterUnits="userSpaceOnUse" color-interpolation-filters="sRGB">
<feFlood flood-opacity="0" result="BackgroundImageFix"/>
<feColorMatrix in="SourceAlpha" type="matrix" values="0 0 0 0 0 0 0 0 0 0 0 0 0 0 0 0 0 0 127 0" result="hardAlpha"/>
<feOffset/>
<feGaussianBlur stdDeviation="8"/>
<feComposite in2="hardAlpha" operator="out"/>
<feColorMatrix type="matrix" values="0 0 0 0 0.298039 0 0 0 0 0.933333 0 0 0 0 0.976471 0 0 0 1 0"/>
<feBlend mode="normal" in2="BackgroundImageFix" result="effect1_dropShadow_74_100"/>
<feBlend mode="normal" in="SourceGraphic" in2="effect1_dropShadow_74_100" result="shape"/>
</filter>
</defs>
</svg>
