<svg width="350" height="350" viewBox="0 0 350 350" fill="none" xmlns="http://www.w3.org/2000/svg">
<rect width="350" height="350" rx="64" fill="#16161D"/>
<path d="M35.4105 279.818H41.2145L48.9872 298.79H49.294L57.0668 279.818H62.8707V306H58.3196V288.013H58.0767L50.8409 305.923H47.4403L40.2045 287.974H39.9616V306H35.4105V279.818ZM71.3977 306H66.3352L75.5526 279.818H81.4077L90.6378 306H85.5753L78.5824 285.188H78.3778L71.3977 306ZM71.5639 295.734H85.3707V299.544H71.5639V295.734ZM115.602 279.818V306H111.383L99.0465 288.166H98.8292V306H94.0863V279.818H98.3306L110.654 297.665H110.885V279.818H115.602ZM125.513 279.818V306H120.77V279.818H125.513ZM130.649 279.818H136.453L144.225 298.79H144.532L152.305 279.818H158.109V306H153.558V288.013H153.315L146.079 305.923H142.679L135.443 287.974H135.2V306H130.649V279.818Z" fill="#4CEEF9"/>
<path d="M172.203 279.818H178.007L185.78 298.79H186.087L193.86 279.818H199.664V306H195.113V288.013H194.87L187.634 305.923H184.233L176.998 287.974H176.755V306H172.203V279.818ZM228.223 292.909C228.223 295.73 227.695 298.146 226.638 300.158C225.59 302.161 224.158 303.695 222.343 304.76C220.536 305.825 218.486 306.358 216.194 306.358C213.901 306.358 211.847 305.825 210.032 304.76C208.225 303.686 206.793 302.148 205.736 300.145C204.688 298.134 204.164 295.722 204.164 292.909C204.164 290.088 204.688 287.676 205.736 285.673C206.793 283.662 208.225 282.124 210.032 281.058C211.847 279.993 213.901 279.46 216.194 279.46C218.486 279.46 220.536 279.993 222.343 281.058C224.158 282.124 225.59 283.662 226.638 285.673C227.695 287.676 228.223 290.088 228.223 292.909ZM223.455 292.909C223.455 290.923 223.144 289.249 222.522 287.885C221.908 286.513 221.056 285.477 219.965 284.778C218.874 284.071 217.617 283.717 216.194 283.717C214.77 283.717 213.513 284.071 212.422 284.778C211.331 285.477 210.475 286.513 209.853 287.885C209.239 289.249 208.932 290.923 208.932 292.909C208.932 294.895 209.239 296.574 209.853 297.946C210.475 299.31 211.331 300.345 212.422 301.053C213.513 301.751 214.77 302.101 216.194 302.101C217.617 302.101 218.874 301.751 219.965 301.053C221.056 300.345 221.908 299.31 222.522 297.946C223.144 296.574 223.455 294.895 223.455 292.909ZM230.397 283.794V279.818H251.286V283.794H243.194V306H238.489V283.794H230.397ZM260.056 279.818V306H255.313V279.818H260.056ZM288.587 292.909C288.587 295.73 288.058 298.146 287.001 300.158C285.953 302.161 284.521 303.695 282.706 304.76C280.899 305.825 278.849 306.358 276.557 306.358C274.264 306.358 272.21 305.825 270.395 304.76C268.588 303.686 267.156 302.148 266.099 300.145C265.051 298.134 264.527 295.722 264.527 292.909C264.527 290.088 265.051 287.676 266.099 285.673C267.156 283.662 268.588 282.124 270.395 281.058C272.21 279.993 274.264 279.46 276.557 279.46C278.849 279.46 280.899 279.993 282.706 281.058C284.521 282.124 285.953 283.662 287.001 285.673C288.058 287.676 288.587 290.088 288.587 292.909ZM283.818 292.909C283.818 290.923 283.507 289.249 282.885 287.885C282.271 286.513 281.419 285.477 280.328 284.778C279.237 284.071 277.98 283.717 276.557 283.717C275.134 283.717 273.876 284.071 272.786 284.778C271.695 285.477 270.838 286.513 270.216 287.885C269.602 289.249 269.295 290.923 269.295 292.909C269.295 294.895 269.602 296.574 270.216 297.946C270.838 299.31 271.695 300.345 272.786 301.053C273.876 301.751 275.134 302.101 276.557 302.101C277.98 302.101 279.237 301.751 280.328 301.053C281.419 300.345 282.271 299.31 282.885 297.946C283.507 296.574 283.818 294.895 283.818 292.909ZM314.586 279.818V306H310.368L298.031 288.166H297.814V306H293.071V279.818H297.315L309.639 297.665H309.869V279.818H314.586Z" fill="#54D381"/>
<g filter="url(#filter0_d_74_52)">
<path d="M313 35C315.761 35 318 37.2386 318 40C318 42.5927 316.027 44.7237 313.5 44.9746V139.024C316.027 139.275 318 141.407 318 144C318 146.593 316.027 148.724 313.5 148.975V237.024C316.027 237.275 318 239.407 318 242C318 244.761 315.761 247 313 247C310.407 247 308.275 245.027 308.024 242.5H253.976C253.725 245.027 251.593 247 249 247C246.239 247 244 244.761 244 242C244 239.581 245.718 237.563 248 237.1V192.899C245.718 192.436 244 190.419 244 188C244 185.581 245.718 183.563 248 183.1V134.899C247.091 134.715 246.271 134.284 245.614 133.679L217.025 163.034C217.638 163.864 218 164.89 218 166C218 168.761 215.761 171 213 171C211.937 171 210.953 170.667 210.143 170.102L175.182 206.002L174.46 207.696L173.805 207.416L173.5 207.73V126.313L173.622 126.173L245.33 43.3945C244.505 42.5029 244 41.3106 244 40C244 37.2386 246.239 35 249 35C251.761 35 254 37.2386 254 40H308C308 37.2386 310.239 35 313 35ZM252.749 238.693C253.424 239.458 253.869 240.429 253.976 241.5H308.024C308.088 240.863 308.271 240.262 308.551 239.719L277.016 212.221L252.749 238.693ZM277.691 211.483L309.1 238.871C309.244 238.692 309.401 238.523 309.568 238.365L290.252 204.463C289.575 204.805 288.81 205 288 205C286.755 205 285.617 204.544 284.742 203.791L277.691 211.483ZM252.869 191.165C251.952 192.285 250.56 193 249 193V237C250.134 237 251.179 237.378 252.018 238.014L276.263 211.563L252.869 191.165ZM290.516 195.679C292.001 196.545 293 198.156 293 200C293 201.592 292.255 203.009 291.096 203.925L310.368 237.748C310.999 237.357 311.723 237.102 312.5 237.024V148.975C312.273 148.952 312.052 148.914 311.835 148.862L290.516 195.679ZM253.704 189.693C253.626 189.911 253.532 190.122 253.426 190.324L276.938 210.827L284.052 203.066C283.393 202.22 283 201.156 283 200C283 199.65 283.036 199.308 283.104 198.978L253.704 189.693ZM174.5 205.053L197.441 151.259L174.5 127.729V205.053ZM176.27 203.451L209.382 169.449C208.526 168.552 208 167.338 208 166C208 164.903 208.354 163.89 208.952 163.065L198.197 152.034L176.27 203.451ZM253.191 185.274C253.702 186.059 254 186.994 254 188C254 188.245 253.981 188.486 253.947 188.722L283.405 198.023C283.837 197.02 284.59 196.187 285.532 195.651L272.36 172.347L253.191 185.274ZM288.5 161.462V195.024C288.883 195.062 289.254 195.145 289.606 195.265L310.887 148.531C310.301 148.257 309.776 147.874 309.341 147.406L288.5 161.462ZM273.192 171.785L286.452 195.245C286.787 195.136 287.138 195.06 287.5 195.024V162.137L273.192 171.785ZM251.248 183.534C251.738 183.781 252.181 184.106 252.562 184.493L271.867 171.474L263.104 155.972L251.248 183.534ZM251.012 134.577C250.396 134.848 249.716 135 249 135V183C249.455 183 249.896 183.062 250.315 183.176L262.487 154.879L251.012 134.577ZM263.602 154.816L272.699 170.912L287.5 160.931V138.933L271.901 135.521L263.602 154.816ZM198.622 151.038L209.619 162.316C210.479 161.527 211.616 161.035 212.868 161.003L215.255 128.925L208.193 128.596L198.622 151.038ZM213.867 161.076C214.814 161.242 215.67 161.673 216.354 162.291L244.948 132.929C244.401 132.173 244.059 131.258 244.007 130.267L216.255 128.972L213.867 161.076ZM288.5 160.257L308.734 146.609C308.269 145.85 308 144.956 308 144C308 143.805 308.012 143.613 308.033 143.424L288.5 139.151V160.257ZM253.753 131.551C253.416 132.585 252.752 133.469 251.882 134.084L262.984 153.725L270.908 135.304L253.753 131.551ZM197.866 150.262L207.127 128.546L175.242 127.058L197.866 150.262ZM290.173 102.504C289.658 102.753 289.094 102.916 288.5 102.975V138.129L308.246 142.448C308.636 141.252 309.465 140.255 310.542 139.646L290.173 102.504ZM290.455 93.6445C291.974 94.5026 293 96.131 293 98C293 99.6235 292.225 101.065 291.026 101.979L311.461 139.241C311.793 139.134 312.141 139.06 312.5 139.024V44.9746C312.279 44.9526 312.062 44.9152 311.85 44.8652L290.455 93.6445ZM272.304 134.586L287.5 137.91V102.975C286.994 102.924 286.509 102.799 286.059 102.609L272.304 134.586ZM253.302 127.451C253.745 128.198 254 129.069 254 130C254 130.194 253.987 130.386 253.966 130.574L271.31 134.368L285.179 102.128C284.853 101.905 284.555 101.645 284.291 101.354L253.302 127.451ZM221.306 108.749C220.424 109.527 219.268 110 218 110C217.888 110 217.777 109.995 217.667 109.987L216.329 127.975L244.054 129.268C244.158 128.554 244.414 127.89 244.787 127.308L221.306 108.749ZM208.611 127.614L215.329 127.928L216.676 109.821C216.533 109.782 216.394 109.737 216.257 109.687L208.611 127.614ZM176.011 126.093L207.545 127.564L215.357 109.245C214.821 108.911 214.353 108.478 213.979 107.972L176.011 126.093ZM252.299 126.244C252.442 126.37 252.579 126.502 252.707 126.644L283.697 100.547C283.255 99.8009 283 98.9303 283 98C283 97.7444 283.019 97.4933 283.056 97.248L274.585 95.0762L252.299 126.244ZM222.757 103.46C222.914 103.945 223 104.462 223 105C223 106.132 222.623 107.176 221.988 108.015L245.407 126.523C246.096 125.812 246.993 125.304 248 125.1V92.8994C246.859 92.6677 245.858 92.0484 245.144 91.1836L222.757 103.46ZM253.695 89.7197C252.994 91.6338 251.157 93 249 93V125C249.905 125 250.754 125.241 251.486 125.662L273.548 94.8105L253.695 89.7197ZM175.943 125.018L213.466 107.108C213.167 106.468 213 105.753 213 105C213 102.239 215.239 100 218 100C218.587 100 219.15 100.102 219.674 100.288L246.218 44.1553C246.171 44.1236 246.125 44.0898 246.079 44.0566L175.943 125.018ZM220.578 100.715C221.316 101.16 221.928 101.79 222.353 102.541L244.586 90.3486C244.213 89.6483 244 88.8491 244 88C244 85.581 245.718 83.5628 248 83.0996V44.8994C247.689 44.8362 247.388 44.7432 247.101 44.625L220.578 100.715ZM275.209 94.2041L283.304 96.2793C283.712 95.1663 284.505 94.2396 285.521 93.6582L280.585 86.6865L275.209 94.2041ZM253.474 85.7686C253.809 86.4405 254 87.1978 254 88C254 88.2549 253.98 88.5053 253.943 88.75L274.172 93.9375L279.975 85.8232L270.758 72.8057L253.474 85.7686ZM281.201 85.8252L286.453 93.2441C286.94 93.0858 287.46 93 288 93C288.537 93 289.054 93.0854 289.539 93.2422L310.9 44.5371C310.856 44.5168 310.813 44.4962 310.77 44.4746L281.201 85.8252ZM271.559 72.2051L280.59 84.9619L309.924 43.9404C309.814 43.8543 309.707 43.7639 309.604 43.6689L271.559 72.2051ZM250.828 44.6533C250.262 44.876 249.645 45 249 45V83C250.599 83 252.021 83.7512 252.937 84.9189L270.18 71.9883L250.828 44.6533ZM253.899 41C253.629 42.3332 252.827 43.4724 251.726 44.1904L270.98 71.3877L308.94 42.918C308.535 42.3549 308.244 41.7046 308.101 41H253.899Z" fill="#54D381"/>
</g>
<g filter="url(#filter1_d_74_52)">
<path d="M97 242.5H32L32 40.5H97L174 127V207L97 130V242.5Z" fill="#4CEEF9"/>
</g>
<defs>
<filter id="filter0_d_74_52" x="157.5" y="19" width="176.5" height="244" filterUnits="userSpaceOnUse" color-interpolation-filters="sRGB">
<feFlood flood-opacity="0" result="BackgroundImageFix"/>
<feColorMatrix in="SourceAlpha" type="matrix" values="0 0 0 0 0 0 0 0 0 0 0 0 0 0 0 0 0 0 127 0" result="hardAlpha"/>
<feOffset/>
<feGaussianBlur stdDeviation="8"/>
<feComposite in2="hardAlpha" operator="out"/>
<feColorMatrix type="matrix" values="0 0 0 0 0.298039 0 0 0 0 0.933333 0 0 0 0 0.976471 0 0 0 1 0"/>
<feBlend mode="normal" in2="BackgroundImageFix" result="effect1_dropShadow_74_52"/>
<feBlend mode="normal" in="SourceGraphic" in2="effect1_dropShadow_74_52" result="shape"/>
</filter>
<filter id="filter1_d_74_52" x="16" y="24.5" width="174" height="234" filterUnits="userSpaceOnUse" color-interpolation-filters="sRGB">
<feFlood flood-opacity="0" result="BackgroundImageFix"/>
<feColorMatrix in="SourceAlpha" type="matrix" values="0 0 0 0 0 0 0 0 0 0 0 0 0 0 0 0 0 0 127 0" result="hardAlpha"/>
<feOffset/>
<feGaussianBlur stdDeviation="8"/>
<feComposite in2="hardAlpha" operator="out"/>
<feColorMatrix type="matrix" values="0 0 0 0 0.298039 0 0 0 0 0.933333 0 0 0 0 0.976471 0 0 0 1 0"/>
<feBlend mode="normal" in2="BackgroundImageFix" result="effect1_dropShadow_74_52"/>
<feBlend mode="normal" in="SourceGraphic" in2="effect1_dropShadow_74_52" result="shape"/>
</filter>
</defs>
</svg>
