<svg width="318" height="296" viewBox="0 0 318 296" fill="none" xmlns="http://www.w3.org/2000/svg">
<path d="M19.4105 260.818H25.2145L32.9872 279.79H33.294L41.0668 260.818H46.8707V287H42.3196V269.013H42.0767L34.8409 286.923H31.4403L24.2045 268.974H23.9616V287H19.4105V260.818ZM55.3977 287H50.3352L59.5526 260.818H65.4077L74.6378 287H69.5753L62.5824 266.188H62.3778L55.3977 287ZM55.5639 276.734H69.3707V280.544H55.5639V276.734ZM99.6019 260.818V287H95.3832L83.0465 269.166H82.8292V287H78.0863V260.818H82.3306L94.6545 278.665H94.8846V260.818H99.6019ZM109.513 260.818V287H104.77V260.818H109.513ZM114.649 260.818H120.453L128.225 279.79H128.532L136.305 260.818H142.109V287H137.558V269.013H137.315L130.079 286.923H126.679L119.443 268.974H119.2V287H114.649V260.818Z" fill="#4CEEF9"/>
<path d="M156.203 260.818H162.007L169.78 279.79H170.087L177.86 260.818H183.664V287H179.113V269.013H178.87L171.634 286.923H168.233L160.998 268.974H160.755V287H156.203V260.818ZM212.223 273.909C212.223 276.73 211.695 279.146 210.638 281.158C209.59 283.161 208.158 284.695 206.343 285.76C204.536 286.825 202.486 287.358 200.194 287.358C197.901 287.358 195.847 286.825 194.032 285.76C192.225 284.686 190.793 283.148 189.736 281.145C188.688 279.134 188.164 276.722 188.164 273.909C188.164 271.088 188.688 268.676 189.736 266.673C190.793 264.662 192.225 263.124 194.032 262.058C195.847 260.993 197.901 260.46 200.194 260.46C202.486 260.46 204.536 260.993 206.343 262.058C208.158 263.124 209.59 264.662 210.638 266.673C211.695 268.676 212.223 271.088 212.223 273.909ZM207.455 273.909C207.455 271.923 207.144 270.249 206.522 268.885C205.908 267.513 205.056 266.477 203.965 265.778C202.874 265.071 201.617 264.717 200.194 264.717C198.77 264.717 197.513 265.071 196.422 265.778C195.331 266.477 194.475 267.513 193.853 268.885C193.239 270.249 192.932 271.923 192.932 273.909C192.932 275.895 193.239 277.574 193.853 278.946C194.475 280.31 195.331 281.345 196.422 282.053C197.513 282.751 198.77 283.101 200.194 283.101C201.617 283.101 202.874 282.751 203.965 282.053C205.056 281.345 205.908 280.31 206.522 278.946C207.144 277.574 207.455 275.895 207.455 273.909ZM214.397 264.794V260.818H235.286V264.794H227.194V287H222.489V264.794H214.397ZM244.056 260.818V287H239.313V260.818H244.056ZM272.587 273.909C272.587 276.73 272.058 279.146 271.001 281.158C269.953 283.161 268.521 284.695 266.706 285.76C264.899 286.825 262.849 287.358 260.557 287.358C258.264 287.358 256.21 286.825 254.395 285.76C252.588 284.686 251.156 283.148 250.099 281.145C249.051 279.134 248.527 276.722 248.527 273.909C248.527 271.088 249.051 268.676 250.099 266.673C251.156 264.662 252.588 263.124 254.395 262.058C256.21 260.993 258.264 260.46 260.557 260.46C262.849 260.46 264.899 260.993 266.706 262.058C268.521 263.124 269.953 264.662 271.001 266.673C272.058 268.676 272.587 271.088 272.587 273.909ZM267.818 273.909C267.818 271.923 267.507 270.249 266.885 268.885C266.271 267.513 265.419 266.477 264.328 265.778C263.237 265.071 261.98 264.717 260.557 264.717C259.134 264.717 257.876 265.071 256.786 265.778C255.695 266.477 254.838 267.513 254.216 268.885C253.602 270.249 253.295 271.923 253.295 273.909C253.295 275.895 253.602 277.574 254.216 278.946C254.838 280.31 255.695 281.345 256.786 282.053C257.876 282.751 259.134 283.101 260.557 283.101C261.98 283.101 263.237 282.751 264.328 282.053C265.419 281.345 266.271 280.31 266.885 278.946C267.507 277.574 267.818 275.895 267.818 273.909ZM298.586 260.818V287H294.368L282.031 269.166H281.814V287H277.071V260.818H281.315L293.639 278.665H293.869V260.818H298.586Z" fill="#54D381"/>
<g filter="url(#filter0_d_74_53)">
<path d="M297 16C299.761 16 302 18.2386 302 21C302 23.5927 300.027 25.7237 297.5 25.9746V120.024C300.027 120.275 302 122.407 302 125C302 127.593 300.027 129.724 297.5 129.975V218.024C300.027 218.275 302 220.407 302 223C302 225.761 299.761 228 297 228C294.407 228 292.275 226.027 292.024 223.5H237.976C237.725 226.027 235.593 228 233 228C230.239 228 228 225.761 228 223C228 220.581 229.718 218.563 232 218.1V173.899C229.718 173.436 228 171.419 228 169C228 166.581 229.718 164.563 232 164.1V115.899C231.091 115.715 230.271 115.284 229.614 114.679L201.025 144.034C201.638 144.864 202 145.89 202 147C202 149.761 199.761 152 197 152C195.937 152 194.953 151.667 194.143 151.102L159.182 187.002L158.46 188.696L157.805 188.416L157.5 188.73V107.313L157.622 107.173L229.33 24.3945C228.505 23.5029 228 22.3106 228 21C228 18.2386 230.239 16 233 16C235.761 16 238 18.2386 238 21H292C292 18.2386 294.239 16 297 16ZM236.749 219.693C237.424 220.458 237.869 221.429 237.976 222.5H292.024C292.088 221.863 292.271 221.262 292.551 220.719L261.016 193.221L236.749 219.693ZM261.691 192.483L293.1 219.871C293.244 219.692 293.401 219.523 293.568 219.365L274.252 185.463C273.575 185.805 272.81 186 272 186C270.755 186 269.617 185.544 268.742 184.791L261.691 192.483ZM236.869 172.165C235.952 173.285 234.56 174 233 174V218C234.134 218 235.179 218.378 236.018 219.014L260.263 192.563L236.869 172.165ZM274.516 176.679C276.001 177.545 277 179.156 277 181C277 182.592 276.255 184.009 275.096 184.925L294.368 218.748C294.999 218.357 295.723 218.102 296.5 218.024V129.975C296.273 129.952 296.052 129.914 295.835 129.862L274.516 176.679ZM237.704 170.693C237.626 170.911 237.532 171.122 237.426 171.324L260.938 191.827L268.052 184.066C267.393 183.22 267 182.156 267 181C267 180.65 267.036 180.308 267.104 179.978L237.704 170.693ZM158.5 186.053L181.441 132.259L158.5 108.729V186.053ZM160.27 184.451L193.382 150.449C192.526 149.552 192 148.338 192 147C192 145.903 192.354 144.89 192.952 144.065L182.197 133.034L160.27 184.451ZM237.191 166.274C237.702 167.059 238 167.994 238 169C238 169.245 237.981 169.486 237.947 169.722L267.405 179.023C267.837 178.02 268.59 177.187 269.532 176.651L256.36 153.347L237.191 166.274ZM272.5 142.462V176.024C272.883 176.062 273.254 176.145 273.606 176.265L294.887 129.531C294.301 129.257 293.776 128.874 293.341 128.406L272.5 142.462ZM257.192 152.785L270.452 176.245C270.787 176.136 271.138 176.06 271.5 176.024V143.137L257.192 152.785ZM235.248 164.534C235.738 164.781 236.181 165.106 236.562 165.493L255.867 152.474L247.104 136.972L235.248 164.534ZM235.012 115.577C234.396 115.848 233.716 116 233 116V164C233.455 164 233.896 164.062 234.315 164.176L246.487 135.879L235.012 115.577ZM247.602 135.816L256.699 151.912L271.5 141.931V119.933L255.901 116.521L247.602 135.816ZM182.622 132.038L193.619 143.316C194.479 142.527 195.616 142.035 196.868 142.003L199.255 109.925L192.193 109.596L182.622 132.038ZM197.867 142.076C198.814 142.242 199.67 142.673 200.354 143.291L228.948 113.929C228.401 113.173 228.059 112.258 228.007 111.267L200.255 109.972L197.867 142.076ZM272.5 141.257L292.734 127.609C292.269 126.85 292 125.956 292 125C292 124.805 292.012 124.613 292.033 124.424L272.5 120.151V141.257ZM237.753 112.551C237.416 113.585 236.752 114.469 235.882 115.084L246.984 134.725L254.908 116.304L237.753 112.551ZM181.866 131.262L191.127 109.546L159.242 108.058L181.866 131.262ZM274.173 83.5039C273.658 83.7527 273.094 83.9156 272.5 83.9746V119.129L292.246 123.448C292.636 122.252 293.465 121.255 294.542 120.646L274.173 83.5039ZM274.455 74.6445C275.974 75.5026 277 77.131 277 79C277 80.6235 276.225 82.0651 275.026 82.9785L295.461 120.241C295.793 120.134 296.141 120.06 296.5 120.024V25.9746C296.279 25.9526 296.062 25.9152 295.85 25.8652L274.455 74.6445ZM256.304 115.586L271.5 118.91V83.9746C270.994 83.9243 270.509 83.7994 270.059 83.6094L256.304 115.586ZM237.302 108.451C237.745 109.198 238 110.069 238 111C238 111.194 237.987 111.386 237.966 111.574L255.31 115.368L269.179 83.1279C268.853 82.905 268.555 82.6452 268.291 82.3535L237.302 108.451ZM205.306 89.749C204.424 90.5268 203.268 91 202 91C201.888 91 201.777 90.9945 201.667 90.9873L200.329 108.975L228.054 110.268C228.158 109.554 228.414 108.89 228.787 108.308L205.306 89.749ZM192.611 108.614L199.329 108.928L200.676 90.8213C200.533 90.7823 200.394 90.7375 200.257 90.6865L192.611 108.614ZM160.011 107.093L191.545 108.564L199.357 90.2451C198.821 89.9108 198.353 89.478 197.979 88.9717L160.011 107.093ZM236.299 107.244C236.442 107.37 236.579 107.502 236.707 107.644L267.697 81.5469C267.255 80.8009 267 79.9303 267 79C267 78.7444 267.019 78.4933 267.056 78.248L258.585 76.0762L236.299 107.244ZM206.757 84.46C206.914 84.9452 207 85.4625 207 86C207 87.1324 206.623 88.1764 205.988 89.0146L229.407 107.523C230.096 106.812 230.993 106.304 232 106.1V73.8994C230.859 73.6677 229.858 73.0484 229.144 72.1836L206.757 84.46ZM237.695 70.7197C236.994 72.6338 235.157 74 233 74V106C233.905 106 234.754 106.241 235.486 106.662L257.548 75.8105L237.695 70.7197ZM159.943 106.018L197.466 88.1084C197.167 87.4676 197 86.7535 197 86C197 83.2386 199.239 81 202 81C202.587 81 203.15 81.1021 203.674 81.2881L230.218 25.1553C230.171 25.1236 230.125 25.0898 230.079 25.0566L159.943 106.018ZM204.578 81.7148C205.316 82.1596 205.928 82.7904 206.353 83.541L228.586 71.3486C228.213 70.6483 228 69.8491 228 69C228 66.581 229.718 64.5628 232 64.0996V25.8994C231.689 25.8362 231.388 25.7432 231.101 25.625L204.578 81.7148ZM259.209 75.2041L267.304 77.2793C267.712 76.1663 268.505 75.2396 269.521 74.6582L264.585 67.6865L259.209 75.2041ZM237.474 66.7686C237.809 67.4405 238 68.1978 238 69C238 69.2549 237.98 69.5053 237.943 69.75L258.172 74.9375L263.975 66.8232L254.758 53.8057L237.474 66.7686ZM265.201 66.8252L270.453 74.2441C270.94 74.0858 271.46 74 272 74C272.537 74 273.054 74.0854 273.539 74.2422L294.9 25.5371C294.856 25.5168 294.813 25.4962 294.77 25.4746L265.201 66.8252ZM255.559 53.2051L264.59 65.9619L293.924 24.9404C293.814 24.8543 293.707 24.7639 293.604 24.6689L255.559 53.2051ZM234.828 25.6533C234.262 25.876 233.645 26 233 26V64C234.599 64 236.021 64.7512 236.937 65.9189L254.18 52.9883L234.828 25.6533ZM237.899 22C237.629 23.3332 236.827 24.4724 235.726 25.1904L254.98 52.3877L292.94 23.918C292.535 23.3549 292.244 22.7046 292.101 22H237.899Z" fill="#54D381"/>
</g>
<g filter="url(#filter1_d_74_53)">
<path d="M81 223.5H16L16 21.5H81L158 108V188L81 111V223.5Z" fill="#4CEEF9"/>
</g>
<defs>
<filter id="filter0_d_74_53" x="141.5" y="0" width="176.5" height="244" filterUnits="userSpaceOnUse" color-interpolation-filters="sRGB">
<feFlood flood-opacity="0" result="BackgroundImageFix"/>
<feColorMatrix in="SourceAlpha" type="matrix" values="0 0 0 0 0 0 0 0 0 0 0 0 0 0 0 0 0 0 127 0" result="hardAlpha"/>
<feOffset/>
<feGaussianBlur stdDeviation="8"/>
<feComposite in2="hardAlpha" operator="out"/>
<feColorMatrix type="matrix" values="0 0 0 0 0.298039 0 0 0 0 0.933333 0 0 0 0 0.976471 0 0 0 1 0"/>
<feBlend mode="normal" in2="BackgroundImageFix" result="effect1_dropShadow_74_53"/>
<feBlend mode="normal" in="SourceGraphic" in2="effect1_dropShadow_74_53" result="shape"/>
</filter>
<filter id="filter1_d_74_53" x="0" y="5.5" width="174" height="234" filterUnits="userSpaceOnUse" color-interpolation-filters="sRGB">
<feFlood flood-opacity="0" result="BackgroundImageFix"/>
<feColorMatrix in="SourceAlpha" type="matrix" values="0 0 0 0 0 0 0 0 0 0 0 0 0 0 0 0 0 0 127 0" result="hardAlpha"/>
<feOffset/>
<feGaussianBlur stdDeviation="8"/>
<feComposite in2="hardAlpha" operator="out"/>
<feColorMatrix type="matrix" values="0 0 0 0 0.298039 0 0 0 0 0.933333 0 0 0 0 0.976471 0 0 0 1 0"/>
<feBlend mode="normal" in2="BackgroundImageFix" result="effect1_dropShadow_74_53"/>
<feBlend mode="normal" in="SourceGraphic" in2="effect1_dropShadow_74_53" result="shape"/>
</filter>
</defs>
</svg>
